<?xml version="1.0" encoding="UTF-8" standalone="no"?>
<svg
   xmlns:dc="http://purl.org/dc/elements/1.1/"
   xmlns:cc="http://creativecommons.org/ns#"
   xmlns:rdf="http://www.w3.org/1999/02/22-rdf-syntax-ns#"
   xmlns:svg="http://www.w3.org/2000/svg"
   xmlns="http://www.w3.org/2000/svg"
   xmlns:sodipodi="http://sodipodi.sourceforge.net/DTD/sodipodi-0.dtd"
   xmlns:inkscape="http://www.inkscape.org/namespaces/inkscape"
   data-name="Layer 1"
   viewBox="0 0 82 82"
   x="0px"
   y="0px"
   version="1.1"
   id="svg16"
   sodipodi:docname="menu.svg"
   width="82"
   height="82"
   inkscape:version="0.92.3 (2405546, 2018-03-11)">
  <metadata
     id="metadata22">
    <rdf:RDF>
      <cc:Work
         rdf:about="">
        <dc:format>image/svg+xml</dc:format>
        <dc:type
           rdf:resource="http://purl.org/dc/dcmitype/StillImage" />
      </cc:Work>
    </rdf:RDF>
  </metadata>
  <defs
     id="defs20" />
  <sodipodi:namedview
     pagecolor="#ffffff"
     bordercolor="#666666"
     borderopacity="1"
     objecttolerance="10"
     gridtolerance="10"
     guidetolerance="10"
     inkscape:pageopacity="0"
     inkscape:pageshadow="2"
     inkscape:window-width="668"
     inkscape:window-height="480"
     id="namedview18"
     showgrid="false"
     inkscape:zoom="1.888"
     inkscape:cx="41"
     inkscape:cy="28.5"
     inkscape:window-x="0"
     inkscape:window-y="28"
     inkscape:window-maximized="0"
     inkscape:current-layer="svg16" />
  <title
     id="title2">Essential Icons</title>
  <path
     d="M 57,30 H 25 a 3,3 0 0 1 0,-6 h 32 a 3,3 0 0 1 0,6 z"
     id="path4"
     inkscape:connector-curvature="0" />
  <path
     d="M 57,44 H 25 a 3,3 0 0 1 0,-6 h 32 a 3,3 0 0 1 0,6 z"
     id="path6"
     inkscape:connector-curvature="0" />
  <path
     d="M 57,58 H 25 a 3,3 0 0 1 0,-6 h 32 a 3,3 0 0 1 0,6 z"
     id="path8"
     inkscape:connector-curvature="0" />
  <path
     d="M 41,82 A 41,41 0 1 1 82,41 41,41 0 0 1 41,82 Z M 41,6 A 35,35 0 1 0 76,41 35,35 0 0 0 41,6 Z"
     id="path10"
     inkscape:connector-curvature="0" />
</svg>
