<svg xmlns="http://www.w3.org/2000/svg" xmlns:xlink="http://www.w3.org/1999/xlink" viewBox="0 0 22 30" version="1.1" x="0px" y="0px"><title>12 -Darkness- (Outline)</title><desc>Created with Sketch.</desc><g stroke="none" stroke-width="1" fill="none" fill-rule="evenodd"><g fill="#000000"><path d="M10,1 L10,23 C10,23.5522847 10.4477153,24 11,24 C11.5522847,24 12,23.5522847 12,23 L12,1 C12,0.44771525 11.5522847,0 11,0 C10.4477153,0 10,0.44771525 10,1 Z"/><path d="M2.9486833,3.31622777 C3.12333107,2.79228445 2.84017108,2.22596447 2.31622777,2.0513167 C1.79228445,1.87666893 1.22596447,2.15982892 1.0513167,2.68377223 L0,5.83772234 L0,6 C0,10.1932178 5.12854641,13 11,13 C11.5522847,13 12,12.5522847 12,12 C12,11.4477153 11.5522847,11 11,11 C6.17559052,11 2.14883756,8.84421126 2.00403143,6.15018338 L2.9486833,3.31622777 Z"/><path d="M11,11 C10.4477153,11 10,11.4477153 10,12 C10,12.5522847 10.4477153,13 11,13 C16.8714536,13 22,10.1932178 22,6 L22,5.83772234 L20.9486833,2.68377223 C20.7740355,2.15982892 20.2077156,1.87666893 19.6837722,2.0513167 C19.1598289,2.22596447 18.8766689,2.79228445 19.0513167,3.31622777 L19.9959686,6.15018338 C19.8511624,8.84421126 15.8244095,11 11,11 Z"/><path d="M8,16 C8,16.552 7.552,17 7,17 C6.448,17 6,16.552 6,16 C6,15.448 6.448,15 7,15 C7.552,15 8,15.448 8,16"/><path d="M16,16 C16,16.552 15.552,17 15,17 C14.448,17 14,16.552 14,16 C14,15.448 14.448,15 15,15 C15.552,15 16,15.448 16,16"/></g></g><text x="0" y="39" fill="#000000" font-size="5px" font-weight="bold" font-family="'Helvetica Neue', Helvetica, Arial-Unicode, Arial, Sans-serif">Created by Ben Davis</text><text x="0" y="44" fill="#000000" font-size="5px" font-weight="bold" font-family="'Helvetica Neue', Helvetica, Arial-Unicode, Arial, Sans-serif">from the Noun Project</text></svg>