<svg xmlns="http://www.w3.org/2000/svg" xmlns:xlink="http://www.w3.org/1999/xlink" viewBox="0 0 22 23.75" version="1.1" x="0px" y="0px"><title>18 -Protection- (Outline)</title><desc>Created with Sketch.</desc><g stroke="none" stroke-width="1" fill="none" fill-rule="evenodd"><g fill="#000000"><path d="M1,19 C0.448,19 0,18.552 0,18 C0,17.448 0.448,17 1,17 C1.552,17 2,17.448 2,18 C2,18.552 1.552,19 1,19"/><path d="M9,19 C8.448,19 8,18.552 8,18 C8,17.448 8.448,17 9,17 C9.552,17 10,17.448 10,18 C10,18.552 9.552,19 9,19"/><path d="M1.78086881,3.37530495 C1.19035855,2.63716713 0,3.05472237 0,4 L0,14 C0,14.5522847 0.44771525,15 1,15 C1.55228475,15 2,14.5522847 2,14 L2,6.85078106 L8.21913119,14.624695 C8.80964145,15.3628329 10,14.9452776 10,14 L10,4 C10,2.90228475 10.9022847,2 12,2 C13.0977153,2 14,2.90228475 14,4 C14,6.20228475 15.7977153,8 18,8 C20.2022847,8 22,6.20228475 22,4 C22,3.44771525 21.5522847,3 21,3 C20.4477153,3 20,3.44771525 20,4 C20,5.09771525 19.0977153,6 18,6 C16.9022847,6 16,5.09771525 16,4 C16,1.79771525 14.2022847,0 12,0 C9.79771525,0 8,1.79771525 8,4 L8,11.1492189 L1.78086881,3.37530495 Z"/></g></g><text x="0" y="34" fill="#000000" font-size="5px" font-weight="bold" font-family="'Helvetica Neue', Helvetica, Arial-Unicode, Arial, Sans-serif">Created by Ben Davis</text><text x="0" y="39" fill="#000000" font-size="5px" font-weight="bold" font-family="'Helvetica Neue', Helvetica, Arial-Unicode, Arial, Sans-serif">from the Noun Project</text></svg>