<svg xmlns="http://www.w3.org/2000/svg" xmlns:xlink="http://www.w3.org/1999/xlink" viewBox="0 0 24 20" version="1.1" x="0px" y="0px"><title>5 -Waning Crescent- (Outline)</title><desc>Created with Sketch.</desc><g stroke="none" stroke-width="1" fill="none" fill-rule="evenodd"><g fill="#000000"><path d="M18,8 C18,11.3137153 15.3137153,14 12,14 C8.68628475,14 6,11.3137153 6,8 C6,4.68628475 8.68628475,2 12,2 C15.3137153,2 18,4.68628475 18,8 Z M20,8 C20,3.58171525 16.4182847,0 12,0 C7.58171525,0 4,3.58171525 4,8 C4,12.4182847 7.58171525,16 12,16 C16.4182847,16 20,12.4182847 20,8 Z"/><path d="M2,8 C2,8.552 1.552,9 1,9 C0.448,9 0,8.552 0,8 C0,7.448 0.448,7 1,7 C1.552,7 2,7.448 2,8"/><path d="M24,8 C24,8.552 23.552,9 23,9 C22.448,9 22,8.552 22,8 C22,7.448 22.448,7 23,7 C23.552,7 24,7.448 24,8"/><path d="M9.14242521,0.533915494 C6.07018185,1.71024594 4,4.65887386 4,7.9998 C4,11.3407261 6.07018185,14.2893541 9.14242521,15.4656845 C9.37265858,15.5538385 9.62734142,15.5538385 9.85757479,15.4656845 C12.9298182,14.2893541 15,11.3407261 15,7.9998 C15,4.65887386 12.9298182,1.71024594 9.85757479,0.533915494 C9.62734142,0.445761502 9.37265858,0.445761502 9.14242521,0.533915494 Z M13,7.9998 C13,10.3725735 11.6068728,12.4817127 9.5,13.4476807 C7.39312721,12.4817127 6,10.3725735 6,7.9998 C6,5.62702645 7.39312721,3.5178873 9.5,2.55191934 C11.6068728,3.5178873 13,5.62702645 13,7.9998 Z"/></g></g><text x="0" y="31" fill="#000000" font-size="5px" font-weight="bold" font-family="'Helvetica Neue', Helvetica, Arial-Unicode, Arial, Sans-serif">Created by Ben Davis</text><text x="0" y="36" fill="#000000" font-size="5px" font-weight="bold" font-family="'Helvetica Neue', Helvetica, Arial-Unicode, Arial, Sans-serif">from the Noun Project</text></svg>